HIERARCHY
ROOT Hips
{
	OFFSET 0.00000 0.00000 0.00000
	CHANNELS 6 Xposition Yposition Zposition Zrotation Yrotation Xrotation 
	JOINT LHipJoint
	{
		OFFSET 0 0 0
		CHANNELS 3 Zrotation Yrotation Xrotation
		JOINT LeftHip
		{
			OFFSET 1.42489 -1.84941 0.69647
			CHANNELS 3 Zrotation Yrotation Xrotation
			JOINT LeftKnee
			{
				OFFSET 2.44443 -6.71602 0.00000
				CHANNELS 3 Zrotation Yrotation Xrotation
				JOINT LeftAnkle
				{
					OFFSET 2.62838 -7.22137 0.00000
					CHANNELS 3 Zrotation Yrotation Xrotation
					JOINT LeftToe
					{
						OFFSET 0.24036 -0.66037 2.29953
						CHANNELS 3 Zrotation Yrotation Xrotation
						End Site
						{
							OFFSET 0.00000 -0.00000 1.19837
						}
					}
				}
			}
		}
	}
	JOINT RHipJoint
	{
		OFFSET 0 0 0
		CHANNELS 3 Zrotation Yrotation Xrotation
		JOINT RightHip
		{
			OFFSET -1.37055 -1.84941 0.69647
			CHANNELS 3 Zrotation Yrotation Xrotation
			JOINT RightKnee
			{
				OFFSET -2.54834 -7.00152 0.00000
				CHANNELS 3 Zrotation Yrotation Xrotation
				JOINT RightAnkle
				{
					OFFSET -2.65692 -7.29983 0.00000
					CHANNELS 3 Zrotation Yrotation Xrotation
					JOINT RightToe
					{
						OFFSET -0.18839 -0.51760 2.29390
						CHANNELS 3 Zrotation Yrotation Xrotation
						End Site
						{
							OFFSET -0.00000 -0.00000 1.18261
						}
					}
				}
			}
		}
	}
	JOINT lowerback
	{
		OFFSET 0 0 0
		CHANNELS 3 Zrotation Yrotation Xrotation
		JOINT Chest
		{
			OFFSET 0.05220 2.15489 0.05011
			CHANNELS 3 Zrotation Yrotation Xrotation
			JOINT Chest2
			{
				OFFSET -0.07653 2.14219 -0.05668
				CHANNELS 3 Zrotation Yrotation Xrotation
				JOINT lowerneck
				{
					OFFSET 0 0 0
					CHANNELS 3 Zrotation Yrotation Xrotation
					JOINT Neck
					{
						OFFSET 0.01370 1.58638 0.01447
						CHANNELS 3 Zrotation Yrotation Xrotation
						JOINT Head
						{
							OFFSET 0.23548 1.54190 -0.21747
							CHANNELS 3 Zrotation Yrotation Xrotation
							End Site
							{
								OFFSET 0.07132 1.59823 -0.08163
							}
						}
					}
				}
				JOINT LeftCollar
				{
					OFFSET 0 0 0
					CHANNELS 3 Zrotation Yrotation Xrotation
					JOINT LeftShoulder
					{
						OFFSET 3.47056 1.45357 -0.58896
CHANNELS 3 Zrotation Xrotation Yrotation
						JOINT LeftElbow
						{
OFFSET 0 -5.190690 0.000000
CHANNELS 3 Zrotation Xrotation Yrotation
							JOINT LeftWrist
							{
OFFSET 0 -3.300160 0.000000
CHANNELS 3 Zrotation Xrotation Yrotation
								JOINT lhand
								{
									OFFSET 0 0 0
CHANNELS 3 Zrotation Xrotation Yrotation
									JOINT LFingers
									{
OFFSET 0 -0.707700 0.000000
CHANNELS 3 Zrotation Xrotation Yrotation
										End Site
										{
OFFSET 0 -0.570560 0.000000
										}
									}
								}
								JOINT LThumb
								{
OFFSET 0 0.000000 0.000000
CHANNELS 3 Zrotation Xrotation Yrotation
									End Site
									{
OFFSET 0 -0.579280 0.579280
									}
								}
							}
						}
					}
				}
				JOINT RightCollar
				{
					OFFSET 0 0 0
					CHANNELS 3 Zrotation Yrotation Xrotation
					JOINT RightShoulder
					{
						OFFSET -2.89018 2.03305 -0.26731
CHANNELS 3 Zrotation Xrotation Yrotation
						JOINT RightElbow
						{
OFFSET 0 -5.239240 0.000000
CHANNELS 3 Zrotation Xrotation Yrotation
							JOINT RightWrist
							{
OFFSET 0 -3.329530 0.000000
CHANNELS 3 Zrotation Xrotation Yrotation
								JOINT rhand
								{
									OFFSET 0 0 0
CHANNELS 3 Zrotation Xrotation Yrotation
									JOINT RFingers
									{
OFFSET 0 -0.607410 0.000000
CHANNELS 3 Zrotation Xrotation Yrotation
										End Site
										{
OFFSET 0 -0.489710 0.000000
										}
									}
								}
								JOINT RThumb
								{
OFFSET 0 0.000000 0.000000
CHANNELS 3 Zrotation Xrotation Yrotation
									End Site
									{
OFFSET 0 -0.497190 0.497190
									}
								}
							}
						}
					}
				}
			}
		}
	}
}
MOTION
Frames: 11
Frame Time: 0.008333333333333333
26.349100 16.635800 48.176900 -175.074000 -52.129000 176.572000 0.000000 0.000000 0.000000 -16.186300 1.662400 -11.539000 2.098100 9.067500 26.006700 0.777900 -0.585000 -16.479700 1.106300 -6.682900 -18.779200 0.000000 0.000000 0.000000 22.455200 0.573600 -13.056700 -3.088300 -10.836600 31.730800 -0.516400 -11.042000 -21.725000 -1.098700 6.660700 -18.714100 5.873900 0.200200 -2.502200 -1.426000 -0.103500 4.986800 -4.812100 0.244200 6.626500 4.260200 2.505700 -8.811300 6.678700 2.005200 7.129700 1.599900 1.341300 3.904600 0.000000 0.000000 0.000000 11.785400 -4.053300 -34.217800 15.835300 -25.296800 3.575300 5.571900 -8.332500 7.897500 0.000000 0.000000 0.000000 -7.125000 0.000000 0.000000 -15.352300 22.124100 -8.751000 0.000000 0.000000 0.000000 -4.423600 2.200600 28.775100 -19.941100 -30.571400 -5.501400 -10.676800 0.600700 4.883100 0.000000 0.000000 0.000000 7.125000 0.000000 -0.000000 13.177200 34.701700 3.407000
26.348067 16.625111 48.177218 -174.999045 -52.071244 176.498486 0.000000 0.000000 0.000000 -16.115222 1.699532 -11.597566 2.121573 9.114942 26.155380 0.797020 -0.747620 -16.633926 1.070737 -6.578016 -18.471023 0.000000 0.000000 0.000000 22.444724 -0.081207 -13.367583 -3.111247 -10.873031 31.852968 -0.579517 -10.157263 -21.451626 -0.962971 6.248246 -17.506338 5.857424 0.223043 -2.548677 -1.449358 -0.072975 4.985858 -4.825384 0.260327 6.656310 4.921882 2.102157 -9.465164 5.556465 1.410074 7.874368 1.091672 1.060337 4.322902 0.000000 0.000000 0.000000 11.860191 -4.143477 -34.185634 15.597735 -24.972134 3.474379 5.568202 -8.119990 7.665646 0.000000 0.000000 0.000000 -7.125000 0.000000 0.000000 -15.377977 22.348709 -8.684552 0.000000 0.000000 0.000000 -4.401541 2.192258 28.800180 -20.003608 -30.646673 -5.533211 -8.034119 0.581046 6.386421 0.000000 0.000000 0.000000 7.125000 0.000000 0.000000 15.611920 36.037621 3.547606
26.352122 16.632382 48.181263 -175.004429 -52.162963 176.532062 0.000000 0.000000 0.000000 -16.121812 1.660921 -11.686115 2.127480 9.126653 26.192260 0.795307 -0.844142 -16.587446 1.084717 -6.619402 -18.592586 0.000000 0.000000 0.000000 22.472909 0.287628 -13.270145 -3.116268 -10.880908 31.879272 -0.594569 -10.421744 -21.852299 -0.881226 5.984403 -16.739069 5.795699 0.148714 -2.490721 -1.485081 -0.159430 4.920225 -4.834008 0.211008 6.540216 4.915255 2.111241 -9.395503 5.616412 1.417457 7.906598 1.113239 1.065587 4.320300 0.000000 0.000000 0.000000 11.924337 -4.116183 -34.062513 15.376093 -24.667437 3.381309 5.434148 -7.975436 7.861495 0.000000 0.000000 0.000000 -7.125000 0.000000 0.000000 -15.453549 22.161404 -8.799235 0.000000 0.000000 0.000000 -4.390719 2.212639 28.849853 -20.062167 -30.717143 -5.563041 -7.429017 0.519888 6.823866 0.000000 0.000000 0.000000 7.125000 0.000000 0.000000 16.199369 36.425980 3.530480
26.349244 16.633320 48.184168 -175.022457 -51.960473 176.556254 0.000000 0.000000 0.000000 -16.135251 1.748226 -11.600688 2.105805 9.083177 26.055788 0.792890 -0.698143 -16.604985 1.065582 -6.562668 -18.426056 0.000000 0.000000 0.000000 22.461919 0.382377 -13.216489 -3.097782 -10.851763 31.781501 -0.558923 -10.542548 -21.631296 -0.957699 6.231302 -17.457129 5.845559 0.147384 -2.395528 -1.552845 -0.149607 4.831413 -4.931562 0.214405 6.392252 4.887847 2.159438 -9.349820 5.692620 1.474887 7.962715 1.148307 1.096789 4.330591 0.000000 0.000000 0.000000 12.029199 -3.982201 -33.954600 15.178114 -24.393637 3.299203 5.330096 -7.916095 7.662397 0.000000 0.000000 0.000000 -7.125000 0.000000 0.000000 -15.547358 22.355716 -8.784845 0.000000 0.000000 0.000000 -4.358312 2.298090 28.978077 -20.109072 -30.773504 -5.587042 -7.659669 0.493707 6.726185 0.000000 0.000000 0.000000 7.125000 0.000000 0.000000 15.989850 36.345294 3.514437
26.347330 16.636853 48.183550 -175.027142 -51.936460 176.535791 0.000000 0.000000 0.000000 -16.128661 1.744006 -11.499097 2.094659 9.060504 25.984879 0.793972 -0.680052 -16.622202 1.047829 -6.509372 -18.269832 0.000000 0.000000 0.000000 22.490673 0.602722 -13.051738 -3.087759 -10.835810 31.728079 -0.540571 -10.795350 -21.706918 -0.976565 6.290588 -17.630093 5.727011 0.144724 -2.478199 -1.535348 -0.153709 4.862555 -4.847085 0.208988 6.471222 4.951138 2.150135 -9.271749 5.638223 1.469948 7.898421 1.115651 1.090514 4.292235 0.000000 0.000000 0.000000 12.027189 -4.077226 -33.633607 14.792690 -23.856536 3.141631 5.330025 -7.593589 8.494900 0.000000 0.000000 0.000000 -7.125000 0.000000 0.000000 -15.465052 21.550302 -9.030657 0.000000 0.000000 0.000000 -4.406280 2.246517 28.969707 -20.084244 -30.743713 -5.574343 -8.667154 0.567786 6.175256 0.000000 0.000000 0.000000 7.125000 0.000000 0.000000 15.055059 35.866310 3.473306
26.344469 16.635718 48.186073 -174.983551 -51.784202 176.496122 0.000000 0.000000 0.000000 -16.106562 1.808552 -11.499051 2.094936 9.061110 25.986543 0.802071 -0.689737 -16.705373 1.029301 -6.453396 -18.105879 0.000000 0.000000 0.000000 22.510327 0.581975 -13.065808 -3.086728 -10.834148 31.722710 -0.581718 -10.488429 -21.795464 -0.875757 5.966326 -16.686769 5.737368 0.171037 -2.487638 -1.540283 -0.118843 4.855422 -4.855501 0.226960 6.473712 4.973397 2.133570 -9.298506 5.607419 1.443141 7.942313 1.100699 1.078439 4.314113 0.000000 0.000000 0.000000 12.053272 -4.099723 -33.547493 14.548090 -23.512835 3.043363 5.347114 -7.532198 8.316949 0.000000 0.000000 0.000000 -7.125000 0.000000 0.000000 -15.470686 21.722219 -8.970794 0.000000 0.000000 0.000000 -4.400859 2.258995 28.905593 -20.078387 -30.736675 -5.571370 -10.161007 0.564779 5.051759 0.000000 0.000000 0.000000 7.125000 0.000000 0.000000 13.624604 34.843621 3.479911
26.340058 16.633729 48.193217 -175.017272 -51.580080 176.537594 0.000000 0.000000 0.000000 -16.170599 1.847185 -11.549952 2.105734 9.082912 26.055045 0.805963 -0.487331 -16.808560 1.014838 -6.409345 -17.976809 0.000000 0.000000 0.000000 22.435763 0.428031 -13.209163 -3.095781 -10.848510 31.770694 -0.579500 -10.268163 -21.564348 -0.915245 6.094220 -17.058513 5.795340 0.185476 -2.421806 -1.578150 -0.093493 4.793240 -4.925259 0.239450 6.373310 4.923929 2.158820 -9.231508 5.669111 1.481371 7.938124 1.131810 1.096953 4.298008 0.000000 0.000000 0.000000 12.069951 -4.042627 -33.090083 14.039882 -22.790342 2.844460 5.333388 -7.637515 10.475209 0.000000 0.000000 0.000000 -7.125000 0.000000 0.000000 -15.286428 19.635024 -9.610568 0.000000 0.000000 0.000000 -4.407648 2.341782 28.959980 -20.054531 -30.708024 -5.559138 -8.775373 0.548576 5.968348 0.000000 0.000000 0.000000 7.125000 0.000000 0.000000 14.922939 35.671901 3.519194
26.337800 16.635671 48.194585 -174.969432 -51.514258 176.497372 0.000000 0.000000 0.000000 -16.136444 1.879432 -11.590342 2.120780 9.113211 26.150190 0.808955 -0.464391 -16.848568 1.035171 -6.471166 -18.157773 0.000000 0.000000 0.000000 22.480149 0.616199 -13.145554 -3.104103 -10.861680 31.814791 -0.579569 -10.381778 -21.670742 -0.915500 6.096536 -17.064768 5.687897 0.227937 -2.597058 -1.498141 -0.050606 4.898665 -4.778606 0.261481 6.591361 4.951394 2.113432 -9.262109 5.531633 1.440929 7.827117 1.075818 1.070086 4.264772 0.000000 0.000000 0.000000 11.971853 -4.228271 -33.280098 13.885960 -22.571449 2.784234 5.602898 -7.965845 9.792709 0.000000 0.000000 0.000000 -7.125000 0.000000 0.000000 -15.156431 20.286939 -9.287363 0.000000 0.000000 0.000000 -4.501300 2.200144 28.808594 -19.994113 -30.635259 -5.528367 -8.818940 0.500015 5.956133 0.000000 0.000000 0.000000 7.125000 0.000000 0.000000 14.885081 35.662373 3.513322
26.335595 16.627097 48.198083 -174.912686 -51.408479 176.493104 0.000000 0.000000 0.000000 -16.119523 1.883337 -11.667713 2.126880 9.125490 26.188729 0.806545 -0.306114 -16.873489 1.038089 -6.480038 -18.183832 0.000000 0.000000 0.000000 22.439663 -0.096814 -13.500706 -3.102353 -10.858958 31.805569 -0.645871 -9.409974 -21.390073 -0.778496 5.633274 -15.724018 5.697133 0.270124 -2.685595 -1.473805 -0.001359 4.915757 -4.754747 0.288480 6.667286 4.910978 2.090881 -9.268485 5.530383 1.422688 7.745432 1.079989 1.057725 4.235978 0.000000 0.000000 0.000000 11.944694 -4.300137 -33.093922 13.647481 -22.228440 2.693374 5.571767 -7.758316 9.729856 0.000000 0.000000 0.000000 -7.125000 0.000000 0.000000 -15.183550 20.348641 -9.283257 0.000000 0.000000 0.000000 -4.516624 2.178657 28.663270 -19.937730 -30.567198 -5.499633 -8.701392 0.391753 6.049807 0.000000 0.000000 0.000000 7.125000 0.000000 0.000000 15.004777 35.743110 3.500231
26.332603 16.629841 48.196502 -174.900778 -51.398476 176.466150 0.000000 0.000000 0.000000 -16.110852 1.903323 -11.679958 2.139370 9.150574 26.267422 0.813325 -0.363037 -16.926165 1.044936 -6.500677 -18.244417 0.000000 0.000000 0.000000 22.469554 0.150896 -13.371447 -3.109005 -10.869441 31.840928 -0.655010 -9.559374 -21.611153 -0.741881 5.501895 -15.345780 5.689064 0.256829 -2.679833 -1.492751 -0.016740 4.904736 -4.771385 0.280431 6.650087 4.914777 2.086856 -9.233316 5.550937 1.420138 7.692209 1.084505 1.054926 4.209579 0.000000 0.000000 0.000000 11.986411 -4.247838 -32.905898 13.442515 -21.932042 2.616305 5.544432 -7.569887 9.762820 0.000000 0.000000 0.000000 -7.125000 0.000000 0.000000 -15.199717 20.317423 -9.305012 0.000000 0.000000 0.000000 -4.433733 2.257569 28.533865 -19.823867 -30.429596 -5.441835 -8.822692 0.585823 5.830761 0.000000 0.000000 0.000000 7.125000 0.000000 0.000000 14.857223 35.539922 3.551805
26.331112 16.627080 48.194106 -174.847873 -51.436701 176.406466 0.000000 0.000000 0.000000 -16.065192 1.863797 -11.656916 2.145371 9.162443 26.304911 0.820192 -0.403029 -16.985161 1.017991 -6.418913 -18.004869 0.000000 0.000000 0.000000 22.484076 -0.153320 -13.471419 -3.115028 -10.879016 31.873036 -0.612575 -9.536012 -21.182425 -0.871618 5.952379 -16.646386 5.503730 0.292260 -2.918867 -1.380105 0.014421 5.048499 -4.547293 0.293682 6.943641 4.972299 1.992352 -9.216412 5.405732 1.317881 7.511946 1.014837 0.994939 4.142362 0.000000 0.000000 0.000000 11.841207 -4.502796 -32.803892 13.197444 -21.575756 2.525431 5.584147 -7.359533 9.710151 0.000000 0.000000 0.000000 -7.125000 0.000000 0.000000 -15.176570 20.367469 -9.272053 0.000000 0.000000 0.000000 -4.506159 2.145825 28.269858 -19.700322 -30.279549 -5.379406 -9.304854 0.699374 5.644600 0.000000 0.000000 0.000000 7.125000 0.000000 0.000000 14.436471 35.377299 3.487574
